<?xml version="1.0" encoding="utf-8"?>
<!-- Generator: Adobe Illustrator 24.1.1, SVG Export Plug-In . SVG Version: 6.00 Build 0)  -->
<svg version="1.1" id="Слой_1" xmlns="http://www.w3.org/2000/svg" xmlns:xlink="http://www.w3.org/1999/xlink" x="0px" y="0px"
	 width="24px" height="24px" viewBox="0 0 24 24" style="enable-background:new 0 0 24 24;" xml:space="preserve">
<g>
	<path d="M19.333334,8.791667L19.333334,8.791667c0-4.125-3.300001-7.333333-7.333334-7.333333s-7.333333,3.3-7.333333,7.333333
		v0.091666C2.375,10.166667,1,12.641667,1,15.208333c0,4.033334,3.3,7.333333,7.333333,7.333333
		c1.283334,0,2.566668-0.366665,3.666667-1.008333c1.099999,0.641668,2.383333,1.008333,3.666667,1.008333
		C19.699999,22.541666,23,19.241667,23,15.208333C23,12.458333,21.625,10.075,19.333334,8.791667z M15.666667,20.616667
		c-0.733334,0-1.466667-0.183334-2.108334-0.458334c0.825-0.916666,1.466667-1.925001,1.741666-3.116667H13.375
		C13.099999,17.866667,12.55,18.6,12,19.15c-0.641666-0.550001-1.099999-1.283333-1.375-2.108334H8.7
		c0.366666,1.191666,0.916667,2.200001,1.741666,3.116667c-0.641666,0.275-1.375,0.458334-2.108334,0.458334
		c-3.025,0-5.5-2.475-5.5-5.500001c0-1.741666,0.825-3.391666,2.2-4.4c0.366667,1.191667,1.008334,2.291667,1.833333,3.116667
		l0.916667-1.65c-0.55-0.641666-1.008333-1.466667-1.191666-2.383333C7.416667,9.616666,8.333333,9.525,9.25,9.708333l0.916667-1.65
		l0,0C9.525001,7.875,8.974999,7.783333,8.333333,7.783333S7.141666,7.875,6.5,8.058333C6.866667,5.308333,9.158333,3.2,12,3.2
		s5.133333,2.108333,5.5,4.858334c-1.191666-0.275001-2.474999-0.275001-3.666667,0l0,0l0.916667,1.65
		c0.916667-0.183333,1.833334-0.091667,2.658333,0.183333c-0.183334,0.825-0.641666,1.650001-1.191666,2.383333l0.916666,1.65
		C17.958334,13.099999,18.6,12,18.966667,10.808332c1.375,1.008333,2.199999,2.658333,2.199999,4.4
		C21.166666,18.141666,18.691666,20.616667,15.666667,20.616667z"/>
	<path d="M14.2,11.816666l-1.650001-2.933332c-0.183332-0.366667-0.733334-0.366667-0.916666,0l-1.650001,2.933332
		l-1.833332,2.841667c-0.183333,0.366667,0.091666,0.825,0.458333,0.825H12h3.391666c0.458334,0,0.641666-0.458333,0.458334-0.825
		L14.2,11.816666z"/>
</g>
</svg>
