<?xml version="1.0" encoding="utf-8"?>
<!-- Generator: Adobe Illustrator 25.4.1, SVG Export Plug-In . SVG Version: 6.00 Build 0)  -->
<svg version="1.1" id="Слой_1" xmlns="http://www.w3.org/2000/svg" xmlns:xlink="http://www.w3.org/1999/xlink" x="0px" y="0px"
	 viewBox="0 0 24 24" style="enable-background:new 0 0 24 24;" xml:space="preserve">
<path d="M15.2,8l2.3-2.3c0.299999,0.1,0.6,0.2,0.9,0.2c1.211021,0,2.116507-0.916607,2.099756-2.133154
	c-0.015181-1.102471-0.964132-2.051422-2.066603-2.066601C17.216604,1.683495,16.299999,2.58898,16.299999,3.8
	c0,0.3,0.1,0.6,0.200001,0.9L14.2,7c0,0-6.043871-6.047222-6.476102-6.476102C7.291667,0.095018,6.8,0.5,6.8,0.5
	c-6.7,6.7-1.8,18,7.5,18c1.4,0,2.8-0.299999,3.999999-0.799999c1.299999-0.5,2.4-1.299999,3.4-2.3
	c0,0,0.508106-0.499871-0.00968-1.009681C21.172531,13.880511,15.2,8,15.2,8z"/>
<path d="M13.2,21.200001h-1l-0.161896-0.809444c-0.083779-0.418879-0.412622-0.733494-0.828056-0.832958
	c-1.569929-0.37587-3.028397-1.085674-4.274371-2.095751c-0.484389-0.392681-1.20642-0.159527-1.336183,0.450384
	C5.304983,19.296501,4.9,21.200001,4.9,21.200001h-1L2.409862,23.18685C2.158585,23.521887,2.397642,24,2.816437,24h11.487125
	c0.410555,0,0.644907-0.468706,0.398575-0.79715L13.2,21.200001z"/>
</svg>
