<?xml version="1.0" encoding="utf-8"?>
<!-- Generator: Adobe Illustrator 24.1.1, SVG Export Plug-In . SVG Version: 6.00 Build 0)  -->
<svg version="1.1" id="Слой_1" xmlns="http://www.w3.org/2000/svg" xmlns:xlink="http://www.w3.org/1999/xlink" x="0px" y="0px"
	 width="24px" height="24px" viewBox="0 0 24 24" style="enable-background:new 0 0 24 24;" xml:space="preserve">
<path class="st0" d="M11.368421,3.212529c0-0.697617-0.565515-1.263158-1.263158-1.263158
	c-0.697642,0-1.263158,0.565541-1.263158,1.263158v12.631578c0,0.697642,0.565516,1.263158,1.263158,1.263158
	c0.697643,0,1.263158-0.565516,1.263158-1.263158V3.212529z M7.578948,7.002002c0-0.697618-0.565541-1.263158-1.263158-1.263158
	s-1.263158,0.56554-1.263158,1.263158v8.842106c0,0.697642,0.565541,1.263158,1.263158,1.263158
	s1.263158-0.565516,1.263158-1.263158V7.002002z M15.157895,7.002002c0-0.697618-0.565516-1.263158-1.263158-1.263158
	c-0.697643,0-1.263158,0.56554-1.263158,1.263158v8.842106c0,0.697642,0.565515,1.263158,1.263158,1.263158
	c0.697642,0,1.263158-0.565516,1.263158-1.263158V7.002002z M18.947369,12.054634c0-0.697643-0.565517-1.263158-1.263159-1.263158
	s-1.263157,0.565515-1.263157,1.263158v3.789474c0,0.697642,0.565516,1.263158,1.263157,1.263158
	s1.263159-0.565516,1.263159-1.263158V12.054634z M3.789474,14.58095c0-0.697643-0.565541-1.263158-1.263158-1.263158
	s-1.263158,0.565515-1.263158,1.263158v1.263158c0,0.697642,0.565541,1.263158,1.263158,1.263158
	s1.263158-0.565516,1.263158-1.263158V14.58095z M22.736841,14.58095c0-0.697643-0.565516-1.263158-1.263157-1.263158
	s-1.263159,0.565515-1.263159,1.263158v1.263158c0,0.697642,0.565517,1.263158,1.263159,1.263158
	s1.263157-0.565516,1.263157-1.263158V14.58095z M1.263158,18.370424C0.565541,18.370424,0,18.93594,0,19.633581
	s0.565541,1.263159,1.263158,1.263159h21.473682C23.434484,20.89674,24,20.331223,24,19.633581
	s-0.565516-1.263157-1.263159-1.263157H1.263158z"/>
</svg>
