<svg width="23" height="22" viewBox="0 0 23 22" stroke="currentColor" xmlns="http://www.w3.org/2000/svg">
<path d="M4.16667 13.7501V15.4001C4.16667 16.4267 4.16667 16.9401 4.36651 17.3324C4.54227 17.6774 4.82272 17.9578 5.16767 18.1336C5.55909 18.3334 6.07242 18.3334 7.09726 18.3334H11.5M4.16667 13.7501V8.25008M4.16667 13.7501H11.5M11.5 18.3334V13.7501M11.5 18.3334H15.9037C16.9285 18.3334 17.4409 18.3334 17.8323 18.1336C18.177 17.9576 18.4575 17.6771 18.6335 17.3324C18.8333 16.9401 18.8333 16.4286 18.8333 15.4037V13.7501M4.16667 8.25008V6.60008C4.16667 5.57341 4.16667 5.06008 4.36651 4.66775C4.54251 4.32216 4.82209 4.04258 5.16767 3.86658C5.56001 3.66675 6.07334 3.66675 7.1 3.66675H11.5M4.16667 8.25008H11.5M11.5 13.7501V8.25008M11.5 13.7501H18.8333M11.5 3.66675H15.9C16.9267 3.66675 17.44 3.66675 17.8323 3.86658C18.1773 4.04235 18.4577 4.3228 18.6335 4.66775C18.8333 5.05916 18.8333 5.5725 18.8333 6.59733V8.25008M11.5 3.66675V8.25008M11.5 8.25008H18.8333M18.8333 8.25008V13.7501"  stroke-width="1.5" stroke-linecap="round" stroke-linejoin="round"/>
</svg>
