<svg width="23" height="22" viewBox="0 0 23 22" stroke="currentColor" xmlns="http://www.w3.org/2000/svg">
<path d="M10.5833 3.66675H14.9833C16.01 3.66675 16.5233 3.66675 16.9157 3.86658C17.2606 4.04235 17.5411 4.3228 17.7168 4.66775C17.9167 5.05916 17.9167 5.5725 17.9167 6.59733V8.25008H10.5833M10.5833 3.66675H6.18333C5.15667 3.66675 4.64333 3.66675 4.251 3.86658C3.90601 4.04229 3.62555 4.32276 3.44983 4.66775C3.25 5.06008 3.25 5.57341 3.25 6.60008V8.25008M10.5833 3.66675V8.25008M10.5833 8.25008H3.25M10.5833 8.25008V18.3334H6.18058C5.15575 18.3334 4.64242 18.3334 4.251 18.1336C3.90605 17.9578 3.6256 17.6774 3.44983 17.3324C3.25 16.9401 3.25 16.4267 3.25 15.4001V13.7501M3.25 8.25008V13.7501M3.25 13.7501H10.5833M14.25 14.6667H17M17 14.6667H19.75M17 14.6667V17.4167M17 14.6667V11.9167" stroke-width="1.5" stroke-linecap="round" stroke-linejoin="round"/>
</svg>
